<mxfile host="app.diagrams.net" modified="2024-05-30T03:39:50.347Z" agent="Mozilla/5.0 (Windows NT 10.0; Win64; x64) AppleWebKit/537.36 (KHTML, like Gecko) Chrome/125.0.0.0 Safari/537.36 Edg/125.0.0.0" etag="wbpk1Z11krEhIgjZN07f" version="24.4.10" type="github">
  <diagram name="第 1 页" id="xN-Uno_HVJ4M185rMvuP">
    <mxGraphModel dx="1386" dy="785" grid="1" gridSize="10" guides="1" tooltips="1" connect="1" arrows="1" fold="1" page="1" pageScale="1" pageWidth="827" pageHeight="1169" math="0" shadow="0">
      <root>
        <mxCell id="0" />
        <mxCell id="1" parent="0" />
        <mxCell id="TQL5WKLXkXLmrRpsLmmw-19" style="edgeStyle=orthogonalEdgeStyle;rounded=0;orthogonalLoop=1;jettySize=auto;html=1;exitX=0.5;exitY=1;exitDx=0;exitDy=0;entryX=0.5;entryY=0;entryDx=0;entryDy=0;" edge="1" parent="1" source="TQL5WKLXkXLmrRpsLmmw-1" target="TQL5WKLXkXLmrRpsLmmw-18">
          <mxGeometry relative="1" as="geometry" />
        </mxCell>
        <mxCell id="TQL5WKLXkXLmrRpsLmmw-32" style="edgeStyle=orthogonalEdgeStyle;rounded=0;orthogonalLoop=1;jettySize=auto;html=1;exitX=1;exitY=0.75;exitDx=0;exitDy=0;entryX=0;entryY=0.75;entryDx=0;entryDy=0;" edge="1" parent="1" source="TQL5WKLXkXLmrRpsLmmw-1" target="TQL5WKLXkXLmrRpsLmmw-2">
          <mxGeometry relative="1" as="geometry" />
        </mxCell>
        <mxCell id="TQL5WKLXkXLmrRpsLmmw-1" value="API" style="rounded=0;whiteSpace=wrap;html=1;" vertex="1" parent="1">
          <mxGeometry x="376" y="230" width="100" height="50" as="geometry" />
        </mxCell>
        <mxCell id="TQL5WKLXkXLmrRpsLmmw-21" style="edgeStyle=orthogonalEdgeStyle;rounded=0;orthogonalLoop=1;jettySize=auto;html=1;exitX=0.5;exitY=1;exitDx=0;exitDy=0;entryX=1;entryY=0.5;entryDx=0;entryDy=0;" edge="1" parent="1" source="TQL5WKLXkXLmrRpsLmmw-2" target="TQL5WKLXkXLmrRpsLmmw-6">
          <mxGeometry relative="1" as="geometry" />
        </mxCell>
        <mxCell id="TQL5WKLXkXLmrRpsLmmw-33" style="edgeStyle=orthogonalEdgeStyle;rounded=0;orthogonalLoop=1;jettySize=auto;html=1;exitX=0;exitY=0.25;exitDx=0;exitDy=0;entryX=1;entryY=0.25;entryDx=0;entryDy=0;" edge="1" parent="1" source="TQL5WKLXkXLmrRpsLmmw-2" target="TQL5WKLXkXLmrRpsLmmw-1">
          <mxGeometry relative="1" as="geometry" />
        </mxCell>
        <mxCell id="TQL5WKLXkXLmrRpsLmmw-2" value="rds" style="rounded=0;whiteSpace=wrap;html=1;" vertex="1" parent="1">
          <mxGeometry x="562" y="230" width="100" height="50" as="geometry" />
        </mxCell>
        <mxCell id="TQL5WKLXkXLmrRpsLmmw-5" style="edgeStyle=orthogonalEdgeStyle;rounded=0;orthogonalLoop=1;jettySize=auto;html=1;exitX=1;exitY=0.5;exitDx=0;exitDy=0;entryX=0.5;entryY=0;entryDx=0;entryDy=0;" edge="1" parent="1" source="TQL5WKLXkXLmrRpsLmmw-4" target="TQL5WKLXkXLmrRpsLmmw-2">
          <mxGeometry relative="1" as="geometry" />
        </mxCell>
        <mxCell id="TQL5WKLXkXLmrRpsLmmw-4" value="watcher" style="rounded=0;whiteSpace=wrap;html=1;" vertex="1" parent="1">
          <mxGeometry x="381" y="130" width="90" height="40" as="geometry" />
        </mxCell>
        <mxCell id="TQL5WKLXkXLmrRpsLmmw-22" style="edgeStyle=orthogonalEdgeStyle;rounded=0;orthogonalLoop=1;jettySize=auto;html=1;exitX=0;exitY=0.5;exitDx=0;exitDy=0;entryX=0.5;entryY=1;entryDx=0;entryDy=0;" edge="1" parent="1" source="TQL5WKLXkXLmrRpsLmmw-6" target="TQL5WKLXkXLmrRpsLmmw-8">
          <mxGeometry relative="1" as="geometry" />
        </mxCell>
        <mxCell id="TQL5WKLXkXLmrRpsLmmw-6" value="syncer" style="rounded=0;whiteSpace=wrap;html=1;" vertex="1" parent="1">
          <mxGeometry x="381" y="405" width="90" height="40" as="geometry" />
        </mxCell>
        <mxCell id="TQL5WKLXkXLmrRpsLmmw-9" style="edgeStyle=orthogonalEdgeStyle;rounded=0;orthogonalLoop=1;jettySize=auto;html=1;exitX=0.25;exitY=1;exitDx=0;exitDy=0;entryX=0.25;entryY=0;entryDx=0;entryDy=0;" edge="1" parent="1" source="TQL5WKLXkXLmrRpsLmmw-7" target="TQL5WKLXkXLmrRpsLmmw-8">
          <mxGeometry relative="1" as="geometry" />
        </mxCell>
        <mxCell id="TQL5WKLXkXLmrRpsLmmw-7" value="controller" style="rounded=0;whiteSpace=wrap;html=1;" vertex="1" parent="1">
          <mxGeometry x="130" y="130" width="140" height="50" as="geometry" />
        </mxCell>
        <mxCell id="TQL5WKLXkXLmrRpsLmmw-14" style="edgeStyle=orthogonalEdgeStyle;rounded=0;orthogonalLoop=1;jettySize=auto;html=1;exitX=0.75;exitY=0;exitDx=0;exitDy=0;entryX=0.75;entryY=1;entryDx=0;entryDy=0;" edge="1" parent="1" source="TQL5WKLXkXLmrRpsLmmw-8" target="TQL5WKLXkXLmrRpsLmmw-7">
          <mxGeometry relative="1" as="geometry" />
        </mxCell>
        <mxCell id="TQL5WKLXkXLmrRpsLmmw-16" style="edgeStyle=orthogonalEdgeStyle;rounded=0;orthogonalLoop=1;jettySize=auto;html=1;exitX=1;exitY=0.5;exitDx=0;exitDy=0;entryX=0;entryY=0.5;entryDx=0;entryDy=0;" edge="1" parent="1" source="TQL5WKLXkXLmrRpsLmmw-8" target="TQL5WKLXkXLmrRpsLmmw-4">
          <mxGeometry relative="1" as="geometry" />
        </mxCell>
        <mxCell id="TQL5WKLXkXLmrRpsLmmw-8" value="cr、resource" style="rounded=0;whiteSpace=wrap;html=1;" vertex="1" parent="1">
          <mxGeometry x="130" y="290" width="140" height="40" as="geometry" />
        </mxCell>
        <mxCell id="TQL5WKLXkXLmrRpsLmmw-12" value="reconcile" style="text;html=1;align=center;verticalAlign=middle;whiteSpace=wrap;rounded=0;" vertex="1" parent="1">
          <mxGeometry x="185" y="220" width="30" height="30" as="geometry" />
        </mxCell>
        <mxCell id="TQL5WKLXkXLmrRpsLmmw-20" style="edgeStyle=orthogonalEdgeStyle;rounded=0;orthogonalLoop=1;jettySize=auto;html=1;exitX=0.5;exitY=1;exitDx=0;exitDy=0;" edge="1" parent="1" source="TQL5WKLXkXLmrRpsLmmw-18" target="TQL5WKLXkXLmrRpsLmmw-6">
          <mxGeometry relative="1" as="geometry" />
        </mxCell>
        <mxCell id="TQL5WKLXkXLmrRpsLmmw-18" value="MQ" style="rounded=0;whiteSpace=wrap;html=1;" vertex="1" parent="1">
          <mxGeometry x="386" y="320" width="80" height="30" as="geometry" />
        </mxCell>
        <mxCell id="TQL5WKLXkXLmrRpsLmmw-23" value="1" style="text;html=1;align=center;verticalAlign=middle;whiteSpace=wrap;rounded=0;" vertex="1" parent="1">
          <mxGeometry x="510" y="270" width="26" height="20" as="geometry" />
        </mxCell>
        <mxCell id="TQL5WKLXkXLmrRpsLmmw-24" value="2" style="text;html=1;align=center;verticalAlign=middle;whiteSpace=wrap;rounded=0;" vertex="1" parent="1">
          <mxGeometry x="430" y="290" width="26" height="20" as="geometry" />
        </mxCell>
        <mxCell id="TQL5WKLXkXLmrRpsLmmw-25" value="3" style="text;html=1;align=center;verticalAlign=middle;whiteSpace=wrap;rounded=0;" vertex="1" parent="1">
          <mxGeometry x="430" y="370" width="26" height="20" as="geometry" />
        </mxCell>
        <mxCell id="TQL5WKLXkXLmrRpsLmmw-26" value="4" style="text;html=1;align=center;verticalAlign=middle;whiteSpace=wrap;rounded=0;" vertex="1" parent="1">
          <mxGeometry x="530" y="400" width="26" height="20" as="geometry" />
        </mxCell>
        <mxCell id="TQL5WKLXkXLmrRpsLmmw-27" value="5" style="text;html=1;align=center;verticalAlign=middle;whiteSpace=wrap;rounded=0;" vertex="1" parent="1">
          <mxGeometry x="215" y="400" width="26" height="20" as="geometry" />
        </mxCell>
        <mxCell id="TQL5WKLXkXLmrRpsLmmw-28" value="6" style="text;html=1;align=center;verticalAlign=middle;whiteSpace=wrap;rounded=0;" vertex="1" parent="1">
          <mxGeometry x="180" y="210" width="26" height="20" as="geometry" />
        </mxCell>
        <mxCell id="TQL5WKLXkXLmrRpsLmmw-29" value="7" style="text;html=1;align=center;verticalAlign=middle;whiteSpace=wrap;rounded=0;" vertex="1" parent="1">
          <mxGeometry x="300" y="230" width="26" height="20" as="geometry" />
        </mxCell>
        <mxCell id="TQL5WKLXkXLmrRpsLmmw-30" value="8" style="text;html=1;align=center;verticalAlign=middle;whiteSpace=wrap;rounded=0;" vertex="1" parent="1">
          <mxGeometry x="520" y="130" width="26" height="20" as="geometry" />
        </mxCell>
        <mxCell id="TQL5WKLXkXLmrRpsLmmw-31" value="&lt;font style=&quot;font-size: 15px;&quot;&gt;1、2：api调用，信息落库；对于映射的k8s资源，通过mq异步处理；&lt;/font&gt;&lt;div&gt;&lt;span style=&quot;font-size: 15px;&quot;&gt;&lt;br&gt;&lt;/span&gt;&lt;div style=&quot;font-size: 15px;&quot;&gt;&lt;font style=&quot;font-size: 15px;&quot;&gt;3、4、5：syncer作为消费方，基于rds中的资源信息（状态），执行相应cr操作（create、update、delete）；&lt;/font&gt;&lt;/div&gt;&lt;div style=&quot;font-size: 15px;&quot;&gt;&lt;font style=&quot;font-size: 15px;&quot;&gt;&lt;br&gt;&lt;/font&gt;&lt;/div&gt;&lt;div style=&quot;font-size: 15px;&quot;&gt;&lt;font style=&quot;font-size: 15px;&quot;&gt;6：controller基于cr变化自行调谐；&lt;/font&gt;&lt;/div&gt;&lt;div style=&quot;font-size: 15px;&quot;&gt;&lt;font style=&quot;font-size: 15px;&quot;&gt;&lt;br&gt;&lt;/font&gt;&lt;/div&gt;&lt;div style=&quot;font-size: 15px;&quot;&gt;&lt;font style=&quot;font-size: 15px;&quot;&gt;7、8：watcher基于list-watch机制监听资源变化，同步信息到rds中；&lt;/font&gt;&lt;/div&gt;&lt;div style=&quot;font-size: 15px;&quot;&gt;&lt;font style=&quot;font-size: 15px;&quot;&gt;&lt;br&gt;&lt;/font&gt;&lt;/div&gt;&lt;div style=&quot;font-size: 15px;&quot;&gt;&lt;font style=&quot;font-size: 15px;&quot;&gt;9：api返回rds中的资源信息；&lt;/font&gt;&lt;/div&gt;&lt;/div&gt;" style="text;html=1;align=left;verticalAlign=middle;whiteSpace=wrap;rounded=0;" vertex="1" parent="1">
          <mxGeometry x="180" y="430" width="460" height="240" as="geometry" />
        </mxCell>
        <mxCell id="TQL5WKLXkXLmrRpsLmmw-34" value="9" style="text;html=1;align=center;verticalAlign=middle;whiteSpace=wrap;rounded=0;" vertex="1" parent="1">
          <mxGeometry x="504" y="220" width="26" height="20" as="geometry" />
        </mxCell>
      </root>
    </mxGraphModel>
  </diagram>
</mxfile>
